<?xml version="1.0" encoding="iso-8859-1"?>
<!-- Uploaded to: SVG Repo, www.svgrepo.com, Generator: SVG Repo Mixer Tools -->
<svg fill="#FFFFFF" height="800px" width="800px" version="1.1" id="Layer_1" xmlns="http://www.w3.org/2000/svg" xmlns:xlink="http://www.w3.org/1999/xlink"
	 viewBox="0 0 512 512" xml:space="preserve">
<g>
	<g>
		<path d="M175.669,306.107c0,0-11.01-55.051-11.026-55.127c-1.508-7.539-11.954-9.145-15.654-2.403
			c0,0-30.227,55.076-30.256,55.128c-3.034,5.528,1.107,12.484,7.389,12.484c0,0,41.24,0,41.281,0
			C172.636,316.189,176.695,311.241,175.669,306.107z M140.363,299.332l12.283-22.381l4.476,22.381H140.363z"/>
	</g>
</g>
<g>
	<g>
		<path d="M235.03,373.873l-37.894-190.765c-0.01-0.051-0.02-0.1-0.031-0.149c-2.761-12.698-13.65-21.229-27.096-21.229
			c-12.351,0-24.032,7.069-29.791,18.018l-105.18,190.62c-4.338,7.861-5.268,16.872-2.551,24.722
			c2.479,7.161,7.667,12.722,14.61,15.658c0.102,0.044,0.206,0.084,0.309,0.124l0.273,0.103c0.102,0.038,0.206,0.075,0.31,0.11
			c15.221,5.071,31.737-2.589,39.389-16.292l19.833-35.534h61.913c0,0,6.41,31.801,6.425,31.872
			c3.409,16.908,20.616,24.601,36.329,20.111c0.08-0.024,0.159-0.047,0.237-0.072l0.221-0.071c0.089-0.028,0.178-0.057,0.264-0.089
			C228.332,405.429,238.178,389.088,235.03,373.873z M207.103,395.072c-6.08,1.711-13.675,0.169-14.985-7.044
			c-0.01-0.053-0.02-0.106-0.03-0.16l-7.802-38.705c-0.793-3.933-4.249-6.763-8.262-6.763h-73.76c-3.055,0-5.871,1.653-7.36,4.321
			c0,0-22.283,39.924-22.286,39.927c-3.685,6.604-11.573,10.869-19.124,8.5c-6.892-2.166-6.467-11.615-3.695-16.636
			c0.004-0.008,105.224-190.7,105.224-190.7c0.031-0.057,0.063-0.116,0.093-0.173c4.611-8.838,22.559-14.354,25.503-1.164
			l37.891,190.747C219.966,384.271,214.859,392.247,207.103,395.072z"/>
	</g>
</g>
<g>
	<g>
		<path d="M441.267,245.248c7.263-44.049-23.645-83.518-68.962-83.518h-57.954c-15.911,0-30.42,12.269-33.018,27.854
			c0,0-33.594,190.596-33.639,190.85c-2.962,16.805,9.212,32.246,26.509,32.246c15.912,0,30.419-12.263,33.009-27.814l10.829-60.252
			h26.103c2.896,0.954,7.743,2.669,11.331,5.234c1.786,1.476,3.652,3.182,4.356,4.868l0.047,0.108
			c0.021,0.049,0.044,0.1,0.066,0.149c0.416,0.915,1.045,2.298,0.358,6.637c-3.287,20.451-3.042,33.831,0.823,44.712
			c4.876,13.731,17.07,23.442,31.908,23.442c19.728-0.003,37.483-17.582,34.699-37.775c-0.007-0.054-0.016-0.107-0.024-0.16
			l-0.028-0.178c-0.012-0.082-0.027-0.163-0.043-0.244c-1.15-6.126-4.255-11.454-8.906-15.418c0.175-2.526,0.586-5.842,1.431-10.065
			c0.008-0.039,0.016-0.079,0.024-0.117l0.022-0.118c0.009-0.051,0.018-0.1,0.026-0.151c2.72-16.311,0.715-33.045-8.446-47.045
			C427.415,283.98,438.016,264.958,441.267,245.248z M394.039,302.39c1.712,3.047,4.137,5.986,5.531,8.414
			c9.286,16.171,1.694,32.675,2.213,49.719c0.201,6.616,8.02,7.653,9.263,13.871c0.931,7.178-4.464,15.123-11.825,17.388
			c-0.191,0.06-0.381,0.125-0.568,0.197c-8.888,3.451-18.721-2.375-21.564-11.072c-0.019-0.057-0.038-0.114-0.058-0.17
			c-2.834-7.932-2.86-19.174-0.081-36.469c1.813-11.279-2.315-20.505-10.974-27.609c-0.12-0.099-0.243-0.193-0.37-0.287
			c-16.073-11.762-35.803-8.614-54.613-8.614c-4.08,0-7.575,2.923-8.296,6.939l-12.095,67.296
			c-1.249,7.497-8.758,13.831-16.398,13.831c-6.438,0-11.283-5.578-9.961-12.183c0.012-0.063,0.024-0.127,0.036-0.19l33.668-191.017
			c1.251-7.505,8.763-13.846,16.404-13.846h57.954c16.868,0,31.59,6.486,41.456,18.262c10.103,12.06,13.974,28.218,10.899,45.498
			c-0.007,0.037-0.013,0.074-0.019,0.111c-2.976,18.129-13.717,35.657-29.471,48.092
			C390.739,294.051,391.752,298.317,394.039,302.39z"/>
	</g>
</g>
<g>
	<g>
		<path d="M391.477,216.543c-6.184-7.364-15.293-11.42-25.647-11.42h-36.704c-4.083,0-7.579,2.926-8.297,6.946
			c0,0-10.624,59.432-10.647,59.564c-0.916,5.127,3.107,9.913,8.297,9.913h35.695c20.681,0,40.059-16.464,44.115-37.483
			c0.009-0.047,0.018-0.094,0.026-0.142C400.114,233.66,397.685,223.937,391.477,216.543z M381.724,240.941
			c-2.524,12.88-15.123,23.748-27.55,23.748h-25.627l7.634-42.708c0,0,29.613,0,29.648,0
			C376.224,221.98,383.543,230.362,381.724,240.941z"/>
	</g>
</g>
<g>
	<g>
		<path d="M468.181,69.63h-26.336V43.292c0-4.655-3.773-8.429-8.429-8.429c-4.656,0-8.429,3.774-8.429,8.429v26.337H398.65
			c-4.656,0-8.429,3.774-8.429,8.429c0,4.655,3.773,8.429,8.429,8.429h26.338v26.337c0,4.655,3.773,8.429,8.429,8.429
			c4.656,0,8.429-3.774,8.429-8.429V86.488h26.337c4.655,0,8.428-3.774,8.428-8.429S472.837,69.63,468.181,69.63z"/>
	</g>
</g>
<g>
	<g>
		<path d="M300.906,495.143H106.762c-49.283,0-89.378-40.095-89.378-89.378V139.426c0-49.285,40.095-89.38,89.378-89.38h27.896
			c4.655,0,8.429-3.774,8.429-8.429s-3.774-8.429-8.429-8.429h-27.896c-58.579,0-106.236,47.657-106.236,106.237v266.338
			C0.525,464.343,48.184,512,106.762,512h194.143c4.655,0,8.429-3.774,8.429-8.429C309.334,498.916,305.56,495.143,300.906,495.143z
			"/>
	</g>
</g>
<g>
	<g>
		<path d="M433.415,0c-26.349,0-49.673,13.135-63.815,33.189H181.938c-4.655,0-8.429,3.774-8.429,8.429s3.774,8.429,8.429,8.429
			h178.611c-3.421,8.9-5.191,18.478-5.191,28.012c0,42.361,35.694,78.058,78.059,78.058c9.919,0,19.857-1.915,29.063-5.61v255.258
			c0,49.285-40.095,89.378-89.378,89.378h-24.894c-4.655,0-8.429,3.774-8.429,8.429c0,4.655,3.774,8.429,8.429,8.429h24.894
			c58.579,0,106.236-47.657,106.236-106.236v-264.64c19.46-14.21,32.136-37.18,32.136-63.066C511.473,35.018,476.457,0,433.415,0z
			 M460.141,133.084c-8.288,4.022-17.468,6.175-26.726,6.175c-33.334,0-61.201-27.929-61.201-61.201
			c0-33.172,27.795-61.202,61.201-61.202c33.746,0,61.201,27.454,61.201,61.201C494.616,101.138,480.882,123.019,460.141,133.084z"
			/>
	</g>
</g>
</svg>