<svg xmlns="http://www.w3.org/2000/svg" xml:space="preserve" id="_x3C_Layer_x3E_" width="800" height="800" version="1.1" viewBox="0 0 32 32"><style>.st1{fill:none;stroke:#FFFFFF;stroke-linecap:round;stroke-linejoin:round;stroke-miterlimit:10}</style><g id="Bitcoin_x2C__BTC"><g id="XMLID_91_"><path id="Bitcoin_x2C__BTC_x2C__cryptocurrency_2_" d="m15.67 25.13.58-2.36c2.81.53 4.92.32 5.81-2.22.72-2.04-.03-3.22-1.51-3.99 1.08-.25 1.89-.96 2.1-2.42h0c.3-2-1.22-3.07-3.3-3.79l.56-2.25m-7.2 16.29.57-2.34c.45.12.89.23 1.31.34m.14-13.19c-.36-.08-3.32-.82-3.32-.82l-.44 1.76s1.22.28 1.2.3c.67.17.79.61.77.96l-1.85 7.41c-.08.2-.29.51-.75.39.02.02-1.2-.3-1.2-.3l-.82 1.89s2.93.74 3.32.84m6.07-11.76c-.43-.11-.88-.21-1.32-.31l.54-2.2m-2.22 9.09c1.12.28 4.69.83 4.16 2.96h0c-.51 2.04-3.95.94-5.07.66l.5-2.01m1.65-6.55c.93.23 3.92.66 3.44 2.6-.46 1.86-3.33.91-4.26.68l.42-1.68" class="st1"/><circle id="XMLID_173_" cx="16" cy="16" r="14.5" class="st1"/></g></g></svg>