<svg xmlns="http://www.w3.org/2000/svg" viewBox="0 0 510 510"><defs/><path fill="#FFF" d="M350 495H108l6-7 61-73a7 7 0 10-12-10l-56 67-18-15 258-307 18 15-181 215a7 7 0 1011 10l240-285c17-20 14-51-8-69l-28-24a49 49 0 00-70 5L9 400l-7 8-2 5 3 82a16 16 0 0016 15h331a7 7 0 100-15zM17 473l22 19-20 3h-1v-1zm80 11l-38 5-43-36-1-38 82 69zm-19-36l-22-18 205-244a7 7 0 10-12-10L45 420l-20-17L283 96l19 17-32 39a7 7 0 1011 10l33-39 21 18zM341 27c12-14 34-16 48-3l29 23c15 13 17 34 5 49l-27 32-8-6a7 7 0 10-10 11l8 7-12 14-82-69 12-14 50 41a7 7 0 0010 0c3-4 3-8 0-11l-50-42zM503 495H389a7 7 0 100 15h114a7 7 0 100-15z" class="active-path" data-old_color="#000000" data-original="#000000"/></svg>