<svg xmlns="http://www.w3.org/2000/svg" viewBox="-21 -71 683 682"><defs/><path fill="#FFF" d="M126 86a13 13 0 0013-13 13 13 0 00-13-12 13 13 0 00-12 12 13 13 0 0012 13zm0 0M173 86h83a12 12 0 100-25h-83a12 12 0 100 25zm0 0M126 166h130a12 12 0 100-25H126a12 12 0 100 25zm0 0M126 246h130a12 12 0 100-25H126a12 12 0 100 25zm0 0M126 326h130a12 12 0 100-25H126a12 12 0 100 25zm0 0M269 393c0-7-6-12-13-12H126a12 12 0 100 25h130c7 0 13-6 13-13zm0 0M371 73c0 7 6 13 13 13h130a12 12 0 100-25H384c-7 0-13 5-13 12zm0 0M514 141H384a13 13 0 000 25h130a12 12 0 100-25zm0 0M514 221H384a13 13 0 000 25h130a12 12 0 100-25zm0 0M514 301H384a13 13 0 000 25h130a12 12 0 100-25zm0 0M514 381H384a13 13 0 000 25h130a12 12 0 100-25zm0 0" class="active-path" data-old_color="#000000" data-original="#000000"/><path fill="#FFF" d="M628 65h-38V10c0-7-6-13-12-13H395c-30 0-58 14-75 37a94 94 0 00-75-37H63c-7 0-13 6-13 13v55H13C6 65 0 70 0 77v448c0 6 6 12 13 12h431a12 12 0 100-25H331h1c10-26 35-42 63-42h182c7 0 13-6 13-13V90h25v422h-69a12 12 0 100 25h82c6 0 12-6 12-12V77c0-7-6-12-12-12zM75 22h170c27 0 51 16 63 40v406a94 94 0 00-63-23H75zM25 90h25v367c0 7 6 13 13 13h182c28 0 53 16 63 42h1H25zm540 355H395c-24 0-46 8-63 23V62c12-24 36-40 63-40h170zm0 0" class="active-path" data-old_color="#000000" data-original="#000000"/><path fill="#FFF" d="M496 512a13 13 0 00-13 13 13 13 0 0013 12 13 13 0 0012-12 13 13 0 00-12-13zm0 0" class="active-path" data-old_color="#000000" data-original="#000000"/></svg>