<svg xmlns="http://www.w3.org/2000/svg" viewBox="0 0 512 512"><defs/><rect width="100%" height="100%" fill="none"/><g class="currentLayer"><path fill="#fff" d="M503 218L262 2c-4-3-8-3-12 0L9 218a28 28 0 0037 41L256 71l210 188a27 27 0 0030 5c10-4 16-14 16-25 0-8-3-15-9-21zm-14 31c-4 1-8 1-12-2L262 53c-4-3-8-3-12 0L35 247c-4 3-8 3-12 2-4-2-6-6-6-10 0-3 1-6 4-8L256 20l235 211a11 11 0 01-2 18z"/><path fill="#fff" d="M481 249l-4-2L262 53c-4-3-8-3-12 0L35 247l-4 2c-3 1-5 4-5 8v246c0 5 3 9 8 9h444c5 0 8-4 8-9V257c0-4-2-7-5-8zm-12 246H43V262l3-3L256 71l210 188 3 3v233zM444 17h-86c-4 0-8 4-8 9v34c0 4 4 8 8 8h86c4 0 8-4 8-8V26c0-5-4-9-8-9zm-9 34h-68V34h68v17z"/><path fill="#fff" d="M427 51h-52c-4 0-8 4-8 9v56l3 6 51 46a9 9 0 0014-6V60c0-5-4-9-8-9zm-9 91l-34-30V68h34v74zM256 128a51 51 0 100 103 51 51 0 000-103zm0 85a34 34 0 110-68 34 34 0 010 68zM503 495H9a9 9 0 100 17h494a9 9 0 100-17z"/><path fill="#fff" d="M299 171h-86a9 9 0 100 17h86a9 9 0 100-17z"/><path fill="#fff" d="M256 128c-5 0-9 4-9 9v85a9 9 0 1018 0v-85c0-5-4-9-9-9zM435 273H307c-5 0-8 4-8 9v221c0 5 3 9 8 9h128c5 0 9-4 9-9V282c0-5-4-9-9-9zm-8 222H316V290h111v205z"/><path fill="#fff" d="M341 324h-34a9 9 0 100 17h34a9 9 0 100-17zM341 444h-34a9 9 0 100 17h34a9 9 0 100-17zM401 384c-5 0-8 4-8 9v25a9 9 0 1017 0v-25c0-5-4-9-9-9zM265 273H77c-5 0-9 4-9 9v153c0 5 4 9 9 9h188c4 0 8-4 8-9V282c0-5-4-9-8-9zm-9 154H85V290h171v137z"/><path fill="#fff" d="M177 318c-4-3-9-3-12 0l-34 34a9 9 0 1012 12l34-34c3-3 3-8 0-12zM168 369c-3-3-9-3-12 0l-25 26a9 9 0 1012 12l25-25c4-4 4-9 0-13zM219 318c-3-3-8-3-12 0l-25 26a9 9 0 1012 12l25-26c4-3 4-8 0-12zM401 384h-26a9 9 0 100 17h26a9 9 0 100-17z"/></g></svg>