<svg xmlns="http://www.w3.org/2000/svg" viewBox="0 0 512 512"><defs/><path fill="#FFF" d="M461 103a8 8 0 10-12 9 239 239 0 01-23 314 239 239 0 01-340 0 239 239 0 010-340 239 239 0 01338-3 8 8 0 1010-11 255 255 0 00-359 3 254 254 0 000 362 254 254 0 00362 0 254 254 0 0024-334z" class="active-path" data-old_color="#000000" data-original="#000000"/><path fill="#FFF" d="M256 118a65 65 0 100 131 65 65 0 000-131zm0 116a50 50 0 110-101 50 50 0 010 101zM311 264H195c-18 0-35 6-48 16a8 8 0 009 12c11-9 25-13 39-13h116c34 0 62 27 62 61v38h-34v-36a8 8 0 00-15 0v36H184v-36a8 8 0 00-15 0v36h-36v-38c0-10 3-20 8-29a8 8 0 10-13-8c-7 11-10 24-10 37v37c0 9 7 16 15 16h240c8 0 15-7 15-16v-37c0-42-34-76-77-76z" class="active-path" data-old_color="#000000" data-original="#000000"/></svg>