<svg xmlns="http://www.w3.org/2000/svg" viewBox="0 0 512 512"><defs/><path fill="#FFF" d="M256 179a51 51 0 110-102 51 51 0 010 102zm0-85a34 34 0 100 68 34 34 0 000-68zm94 324H196c-4 0-8-4-8-8v-52c0-4 4-8 8-8h43v-85h-43c-4 0-8-4-8-9v-51c0-5 4-9 8-9h103c4 0 8 4 8 9v145h43c5 0 8 4 8 8v52c0 4-3 8-8 8zm-145-17h136v-34h-42c-5 0-9-4-9-9V213h-85v34h42c5 0 9 4 9 9v102c0 5-4 9-9 9h-42zm0 0" class="active-path" data-old_color="#000000" data-original="#000000"/><path fill="#FFF" d="M256 512a256 256 0 111-513 256 256 0 01-1 513zm0-495a239 239 0 101 478 239 239 0 00-1-478zm0 0" class="active-path" data-old_color="#000000" data-original="#000000"/><path fill="#FFF" d="M461 256c-5 0-9-4-9-9 0-52-23-101-65-138a9 9 0 0111-13c46 40 71 94 71 151 0 5-3 9-8 9zM333 72l-3-1c-21-7-43-11-65-11a9 9 0 010-17c24 0 48 4 71 12a9 9 0 015 11 9 9 0 01-8 6zM119 418a9 9 0 01-5-2c-47-39-71-91-71-151a9 9 0 0117 0c0 54 22 102 65 138 4 3 4 8 1 12a9 9 0 01-7 3zm128 51c-23 0-45-3-67-11a9 9 0 01-5-11c2-4 7-7 11-5 20 7 40 10 61 10a9 9 0 110 17zm0 0" class="active-path" data-old_color="#000000" data-original="#000000"/></svg>