<svg xmlns="http://www.w3.org/2000/svg" viewBox="0 0 512 512"><defs/><path fill="#FFF" d="M468 41a138 138 0 00-197 0 139 139 0 00-18 173L12 454a30 30 0 0043 42l25-26 33 33a30 30 0 0043 0c11-11 11-30 0-42l-18-17 19-20 18 18a30 30 0 0042 0 30 30 0 000-43l-33-33 111-110a138 138 0 00173-19 138 138 0 000-196zm-12 185a122 122 0 01-157 13c-4-3-8-2-11 1L167 361a8 8 0 000 11l39 39a14 14 0 010 19 14 14 0 01-20 0l-23-23c-3-3-8-3-11 0l-31 31c-3 3-3 8 0 11l23 23a14 14 0 01-19 20l-39-39a8 8 0 00-11 0l-32 32a14 14 0 01-19 0c-6-6-6-14 0-20l245-245c3-2 3-7 1-10A122 122 0 01370 16a122 122 0 01122 123c0 33-13 63-36 87z" class="active-path" data-old_color="#000000" data-original="#000000"/><path fill="#FFF" d="M457 134c-4 0-8 4-8 8a79 79 0 01-135 53 79 79 0 11130-82 8 8 0 0016-6 94 94 0 00-90-63c-26 0-50 9-68 27a95 95 0 10163 72c0-5-3-9-8-9z" class="active-path" data-old_color="#000000" data-original="#000000"/></svg>